# xmcd
#
# Track frame offsets: 
#        150
#        14197
#        32449
#        49046
#        75673
#        93360
#        108614
#        121347
#        151424
#        179489
#        198660
#
# Disc length: 2873 seconds
#
# Revision: 1
# Processed by: cddbd v1.5.2PL0 Copyright (c) Steve Scherf et al.
# Submitted via: ExactAudioCopy v0.99pb4
#
DISCID=8f0b370b
DTITLE=Ella Fitzgerald - The Very Best of the Song Books [disc 1]
DYEAR=2006
DGENRE=Vocal Jazz
TTITLE0=Night and Day
TTITLE1=I Get a Kick Out of You
TTITLE2=Begin the Beguine
TTITLE3=Love for Sale
TTITLE4=My Funny Valentine
TTITLE5=The Lady Is a Tramp
TTITLE6=Where or When
TTITLE7=Take the "A" Train
TTITLE8=I Got It Bad (and That Ain't Good)
TTITLE9=It Don't Mean a Thing (if It Ain't Got That Swing)
TTITLE10=Cheek to Cheek
EXTD=Ella Fiztgerald (1917/1996): vocals\nRecorded 1956/1964 - recordin
EXTD=gs produced by Norman Granz (1918/2001).\nCompilation selected an
EXTD=d sequenced by Richard Seidel - supervised by Bryan Koniarz.\nMast
EXTD=ered by Bob Irwin and Jayme Pieruzzi at Sundazed Studios, Coxsack
EXTD=ie US-NY.\n2CD: Verve B0007423-02 (2006-12-05), UPC 602517052383,
EXTD=BMG D2220318.
EXTT0=(Cole Porter)
EXTT1=(Cole Porter)
EXTT2=(Cole Porter)
EXTT3=(Cole Porter)
EXTT4=(Richard Rodgers//Lorenz Hart)
EXTT5=(Richard Rodgers//Lorenz Hart)
EXTT6=(Richard Rodgers//Lorenz Hart)
EXTT7=(Billy Strayhorn)
EXTT8=(Duke Ellington//Paul Francis Webster)
EXTT9=(Duke Ellington//Irving Mills)
EXTT10=(Irving Berlin)
PLAYORDER=
